<svg xmlns="http://www.w3.org/2000/svg" viewBox="0 0 1200 680" role="img" aria-labelledby="t d"><title id="t">Adom and Nkabom community adventure</title><desc id="d">A cheerful illustrated Ghanaian community scene with two villages separated by a river, schoolchildren, a farmer and a trader.</desc><defs><linearGradient id="sky" x2="0" y2="1"><stop stop-color="#8bd8ff"/><stop offset="1" stop-color="#eaf9ff"/></linearGradient><linearGradient id="water" x2="1"><stop stop-color="#4eb6e8"/><stop offset="1" stop-color="#2779c8"/></linearGradient></defs><rect width="1200" height="680" fill="url(#sky)"/><circle cx="1020" cy="100" r="55" fill="#ffd85e"/><g fill="#fff" opacity=".9"><ellipse cx="180" cy="105" rx="95" ry="32"/><ellipse cx="245" cy="95" rx="58" ry="26"/><ellipse cx="740" cy="140" rx="90" ry="30"/></g><path d="M0 370 Q250 310 475 385 L475 680 H0Z" fill="#7bcf72"/><path d="M725 385 Q950 305 1200 365 V680 H725Z" fill="#68bd65"/><path d="M455 330 Q600 410 745 330 L805 680 H390Z" fill="url(#water)"/><path d="M465 430 Q600 475 735 430" fill="none" stroke="#bfefff" stroke-width="13" opacity=".55"/><g stroke="#79553a" stroke-width="7"><path d="M130 360V235h170v125" fill="#ffd178"/><path d="M105 240l110-85 110 85" fill="#d65349"/><path d="M865 360V230h190v130" fill="#f0bc67"/><path d="M835 235l125-90 125 90" fill="#4d76c7"/></g><g fill="#23486f" font-family="Arial,sans-serif" font-weight="700"><text x="155" y="215" font-size="34">ADOM</text><text x="890" y="210" font-size="34">NKABOM</text></g><g><circle cx="190" cy="455" r="28" fill="#6a3d28"/><path d="M165 486h50l24 85h-98z" fill="#f28a45"/><circle cx="270" cy="470" r="26" fill="#7b4932"/><path d="M248 498h44l20 78h-84z" fill="#2f65e8"/><rect x="215" y="540" width="68" height="42" rx="8" fill="#ffd85e"/><circle cx="930" cy="470" r="28" fill="#6d412c"/><path d="M902 500h56l28 86h-112z" fill="#5ac86d"/><path d="M966 455l48-58" stroke="#6d412c" stroke-width="10"/><path d="M1005 392l48 18-33 26z" fill="#9c6b3d"/><circle cx="1060" cy="482" r="27" fill="#70442f"/><path d="M1035 510h50l25 80h-100z" fill="#8b68e8"/><rect x="1090" y="485" width="78" height="52" rx="9" fill="#ff9b50"/></g><g fill="#2c7a45"><circle cx="70" cy="330" r="55"/><circle cx="1130" cy="320" r="60"/></g><g fill="#7b4c2e"><rect x="62" y="330" width="17" height="95"/><rect x="1122" y="320" width="18" height="105"/></g><g fill="#fff" font-family="Arial,sans-serif"><rect x="345" y="68" width="510" height="92" rx="28" fill="#173052" opacity=".9"/><text x="600" y="108" font-size="31" text-anchor="middle" font-weight="700">A river separates two communities.</text><text x="600" y="142" font-size="22" text-anchor="middle">Can your maths help bring them together?</text></g></svg>